<svg width="199" height="38" viewBox="0 0 199 38" fill="none" xmlns="http://www.w3.org/2000/svg">
<g filter="url(#filter0_dd_41399_427)">
<path fill-rule="evenodd" clip-rule="evenodd" d="M10 6V24H28L10 6ZM4 0V30H34V0H4Z" fill="#FF6E30"/>
<path d="M47 24.3V3.30001H52.55V11.1H60.65V3.30001H66.2V24.3H60.65V16.2H52.55V24.3H47Z" fill="white"/>
<path d="M69.4859 4.50001C69.4859 3.78001 69.7559 3.18001 70.2959 2.70001C70.8359 2.20001 71.5159 1.95001 72.3359 1.95001C73.1559 1.95001 73.8359 2.20001 74.3759 2.70001C74.9159 3.18001 75.1859 3.78001 75.1859 4.50001C75.1859 5.20001 74.9159 5.80001 74.3759 6.30001C73.8359 6.80001 73.1559 7.05001 72.3359 7.05001C71.5159 7.05001 70.8359 6.80001 70.2959 6.30001C69.7559 5.80001 69.4859 5.20001 69.4859 4.50001ZM69.7859 24.3V8.70001H74.8859V24.3H69.7859Z" fill="white"/>
<path d="M79.4541 21.93C78.1141 20.45 77.4441 18.54 77.4441 16.2C77.4441 13.86 78.1141 11.95 79.4541 10.47C80.7941 8.99001 82.4241 8.25001 84.3441 8.25001C85.7241 8.25001 86.9141 8.65001 87.9141 9.45001C88.3741 9.81001 88.7341 10.21 88.9941 10.65H89.2941V8.70001H94.3941V30H79.5441V25.95H89.2941V21.9H88.9941C88.7141 22.34 88.3541 22.72 87.9141 23.04C86.9341 23.78 85.7441 24.15 84.3441 24.15C82.4241 24.15 80.7941 23.41 79.4541 21.93ZM83.5941 13.56C82.9941 14.2 82.6941 15.08 82.6941 16.2C82.6941 17.32 82.9941 18.2 83.5941 18.84C84.1941 19.48 84.9941 19.8 85.9941 19.8C86.9941 19.8 87.7941 19.48 88.3941 18.84C88.9941 18.2 89.2941 17.32 89.2941 16.2C89.2941 15.08 88.9941 14.2 88.3941 13.56C87.7941 12.92 86.9941 12.6 85.9941 12.6C84.9941 12.6 84.1941 12.92 83.5941 13.56Z" fill="white"/>
<path d="M97.3801 24.3V3.30001H102.48V10.8H102.78C103.06 10.32 103.42 9.90001 103.86 9.54001C104.88 8.68001 106.07 8.25001 107.43 8.25001C109.27 8.25001 110.7 8.81001 111.72 9.93001C112.76 11.03 113.28 12.62 113.28 14.7V24.3H108.18V15.45C108.18 14.55 107.94 13.85 107.46 13.35C106.98 12.85 106.32 12.6 105.48 12.6C104.62 12.6 103.9 12.92 103.32 13.56C102.76 14.18 102.48 15.01 102.48 16.05V24.3H97.3801Z" fill="white"/>
<path d="M124.538 30V8.70001H129.638V10.8H129.938C130.218 10.34 130.598 9.92001 131.078 9.54001C132.178 8.68001 133.348 8.25001 134.588 8.25001C136.508 8.25001 138.138 9.01001 139.478 10.53C140.818 12.03 141.488 14.02 141.488 16.5C141.488 18.98 140.818 20.98 139.478 22.5C138.138 24 136.508 24.75 134.588 24.75C133.328 24.75 132.158 24.33 131.078 23.49C130.598 23.11 130.218 22.68 129.938 22.2H129.638V30H124.538ZM130.538 13.62C129.938 14.3 129.638 15.26 129.638 16.5C129.638 17.74 129.938 18.7 130.538 19.38C131.138 20.06 131.938 20.4 132.938 20.4C133.938 20.4 134.738 20.06 135.338 19.38C135.938 18.7 136.238 17.74 136.238 16.5C136.238 15.26 135.938 14.3 135.338 13.62C134.738 12.94 133.938 12.6 132.938 12.6C131.938 12.6 131.138 12.94 130.538 13.62Z" fill="white"/>
<path d="M145.284 22.5C143.944 20.98 143.274 18.98 143.274 16.5C143.274 14.02 143.944 12.03 145.284 10.53C146.624 9.01001 148.254 8.25001 150.174 8.25001C151.414 8.25001 152.584 8.68001 153.684 9.54001C154.144 9.92001 154.524 10.34 154.824 10.8H155.124V8.70001H160.224V24.3H155.124V22.2H154.824C154.544 22.68 154.164 23.11 153.684 23.49C152.604 24.33 151.434 24.75 150.174 24.75C148.254 24.75 146.624 24 145.284 22.5ZM149.424 13.62C148.824 14.3 148.524 15.26 148.524 16.5C148.524 17.74 148.824 18.7 149.424 19.38C150.024 20.06 150.824 20.4 151.824 20.4C152.824 20.4 153.624 20.06 154.224 19.38C154.824 18.7 155.124 17.74 155.124 16.5C155.124 15.26 154.824 14.3 154.224 13.62C153.624 12.94 152.824 12.6 151.824 12.6C150.824 12.6 150.024 12.94 149.424 13.62Z" fill="white"/>
<path d="M162.31 19.2H167.41C167.49 19.5 167.66 19.78 167.92 20.04C168.46 20.58 169.24 20.85 170.26 20.85C171.66 20.85 172.36 20.5 172.36 19.8C172.36 19.48 172.16 19.23 171.76 19.05C171.36 18.85 170.76 18.65 169.96 18.45C169.3 18.29 168.87 18.19 168.67 18.15C168.47 18.11 168.05 18 167.41 17.82C166.77 17.62 166.31 17.45 166.03 17.31C165.77 17.15 165.4 16.93 164.92 16.65C164.46 16.35 164.12 16.05 163.9 15.75C163.7 15.43 163.51 15.04 163.33 14.58C163.15 14.1 163.06 13.59 163.06 13.05C163.06 11.73 163.65 10.6 164.83 9.66001C166.01 8.72001 167.67 8.25001 169.81 8.25001C172.49 8.25001 174.61 9.13001 176.17 10.89C176.79 11.65 177.22 12.52 177.46 13.5H172.51C172.39 13.18 172.25 12.93 172.09 12.75C171.63 12.25 170.97 12 170.11 12C168.91 12 168.31 12.35 168.31 13.05C168.31 13.39 168.51 13.65 168.91 13.83C169.31 14.01 169.92 14.18 170.74 14.34C172.8 14.82 174.19 15.24 174.91 15.6C176.71 16.48 177.61 17.83 177.61 19.65C177.61 21.09 176.97 22.3 175.69 23.28C174.43 24.26 172.62 24.75 170.26 24.75C167.36 24.75 165.15 23.83 163.63 21.99C162.95 21.17 162.51 20.24 162.31 19.2Z" fill="white"/>
<path d="M178.951 19.2H184.051C184.131 19.5 184.301 19.78 184.561 20.04C185.101 20.58 185.881 20.85 186.901 20.85C188.301 20.85 189.001 20.5 189.001 19.8C189.001 19.48 188.801 19.23 188.401 19.05C188.001 18.85 187.401 18.65 186.601 18.45C185.941 18.29 185.511 18.19 185.311 18.15C185.111 18.11 184.691 18 184.051 17.82C183.411 17.62 182.951 17.45 182.671 17.31C182.411 17.15 182.041 16.93 181.561 16.65C181.101 16.35 180.761 16.05 180.541 15.75C180.341 15.43 180.151 15.04 179.971 14.58C179.791 14.1 179.701 13.59 179.701 13.05C179.701 11.73 180.291 10.6 181.471 9.66001C182.651 8.72001 184.311 8.25001 186.451 8.25001C189.131 8.25001 191.251 9.13001 192.811 10.89C193.431 11.65 193.861 12.52 194.101 13.5H189.151C189.031 13.18 188.891 12.93 188.731 12.75C188.271 12.25 187.611 12 186.751 12C185.551 12 184.951 12.35 184.951 13.05C184.951 13.39 185.151 13.65 185.551 13.83C185.951 14.01 186.561 14.18 187.381 14.34C189.441 14.82 190.831 15.24 191.551 15.6C193.351 16.48 194.251 17.83 194.251 19.65C194.251 21.09 193.611 22.3 192.331 23.28C191.071 24.26 189.261 24.75 186.901 24.75C184.001 24.75 181.791 23.83 180.271 21.99C179.591 21.17 179.151 20.24 178.951 19.2Z" fill="white"/>
</g>
<defs>
<filter id="filter0_dd_41399_427" x="0" y="0" width="198.251" height="38" filterUnits="userSpaceOnUse" color-interpolation-filters="sRGB">
<feFlood flood-opacity="0" result="BackgroundImageFix"/>
<feColorMatrix in="SourceAlpha" type="matrix" values="0 0 0 0 0 0 0 0 0 0 0 0 0 0 0 0 0 0 127 0" result="hardAlpha"/>
<feOffset dy="4"/>
<feGaussianBlur stdDeviation="2"/>
<feComposite in2="hardAlpha" operator="out"/>
<feColorMatrix type="matrix" values="0 0 0 0 0 0 0 0 0 0 0 0 0 0 0 0 0 0 0.25 0"/>
<feBlend mode="normal" in2="BackgroundImageFix" result="effect1_dropShadow_41399_427"/>
<feColorMatrix in="SourceAlpha" type="matrix" values="0 0 0 0 0 0 0 0 0 0 0 0 0 0 0 0 0 0 127 0" result="hardAlpha"/>
<feOffset dy="4"/>
<feGaussianBlur stdDeviation="2"/>
<feComposite in2="hardAlpha" operator="out"/>
<feColorMatrix type="matrix" values="0 0 0 0 0 0 0 0 0 0 0 0 0 0 0 0 0 0 0.25 0"/>
<feBlend mode="normal" in2="effect1_dropShadow_41399_427" result="effect2_dropShadow_41399_427"/>
<feBlend mode="normal" in="SourceGraphic" in2="effect2_dropShadow_41399_427" result="shape"/>
</filter>
</defs>
</svg>
